<?xml version="1.0" standalone="no"?>
<!DOCTYPE svg PUBLIC "-//W3C//DTD SVG 20010904//EN"
 "http://www.w3.org/TR/2001/REC-SVG-20010904/DTD/svg10.dtd">
<svg version="1.0" xmlns="http://www.w3.org/2000/svg"
 width="512.000000pt" height="512.000000pt" viewBox="0 0 512.000000 512.000000"
 preserveAspectRatio="xMidYMid meet">

<g transform="translate(0.000000,512.000000) scale(0.100000,-0.100000)"
fill="#000000" stroke="none">
<path d="M1360 5048 c-101 -18 -176 -111 -174 -217 2 -126 93 -215 219 -215
94 0 170 49 205 133 l13 32 158 -3 c136 -3 161 -6 176 -21 16 -16 18 -38 18
-185 l0 -167 -63 -8 c-103 -12 -170 -43 -233 -106 -71 -71 -99 -141 -106 -263
-6 -86 -6 -87 -35 -93 -52 -12 -147 -53 -193 -84 -25 -17 -50 -31 -56 -31 -5
0 -78 39 -162 88 -146 84 -154 87 -214 87 -87 0 -117 -27 -215 -195 -73 -126
-80 -135 -105 -132 -90 11 -183 -37 -226 -117 -79 -144 24 -322 187 -323 191
-1 289 202 175 362 -9 12 5 44 66 148 78 135 100 158 137 147 30 -10 278 -155
278 -163 0 -4 -9 -32 -21 -62 -17 -44 -20 -72 -17 -138 3 -75 1 -83 -17 -89
-83 -26 -145 -143 -145 -275 0 -31 -6 -45 -24 -59 -43 -34 -115 -138 -137
-200 l-22 -59 -179 0 c-156 0 -184 -2 -216 -19 -86 -44 -101 -87 -102 -291
l-1 -155 -51 -30 c-41 -23 -59 -42 -81 -85 -25 -48 -28 -63 -24 -118 6 -75 37
-128 99 -169 36 -24 51 -28 118 -28 67 0 82 4 118 28 23 15 54 46 69 69 24 36
28 52 28 113 0 62 -4 78 -30 121 -21 34 -45 57 -78 74 l-47 25 0 162 c0 208
-15 195 215 191 l167 -3 18 -48 c34 -90 113 -174 240 -258 l23 -15 -42 -54
c-158 -200 -161 -424 -8 -637 l30 -43 -26 -48 c-59 -109 -74 -256 -36 -359 27
-71 93 -139 172 -178 32 -15 54 -31 50 -36 -4 -4 -55 -33 -112 -65 -99 -55
-104 -57 -130 -43 -16 9 -54 62 -98 139 -40 69 -73 128 -73 133 0 4 11 24 25
45 71 107 21 269 -97 317 -194 79 -376 -116 -282 -303 40 -81 149 -138 227
-118 21 5 30 -8 101 -129 83 -144 125 -190 181 -201 62 -11 100 2 245 86 78
45 142 81 144 79 1 -2 17 -30 35 -61 45 -81 112 -151 175 -184 l54 -28 4 -186
c4 -203 9 -224 68 -273 38 -33 88 -47 162 -47 56 0 58 -1 77 -38 73 -142 254
-165 362 -45 74 81 74 205 0 286 -108 120 -289 97 -362 -45 l-19 -38 -69 0
c-101 0 -101 -1 -101 208 l0 172 24 0 c40 0 164 69 224 125 l56 52 66 -67 c77
-79 136 -110 209 -110 67 0 116 25 173 88 l44 50 24 -35 c63 -93 186 -129 283
-83 47 22 130 94 160 139 l16 24 63 -58 c63 -59 183 -125 225 -125 l23 0 0
-173 c0 -209 1 -207 -107 -207 -67 0 -71 1 -77 25 -9 37 -65 96 -111 116 -80
37 -186 17 -248 -47 -47 -47 -61 -83 -61 -154 0 -41 6 -76 16 -95 88 -165 315
-166 399 -3 19 37 21 38 77 38 74 0 124 14 162 47 56 47 60 64 60 267 l0 186
46 21 c65 31 143 106 186 180 21 35 39 67 40 71 2 5 70 -30 152 -77 161 -92
198 -101 269 -71 46 19 67 46 150 190 l75 129 63 1 c36 1 77 9 94 18 168 89
164 331 -7 402 -21 9 -61 16 -90 16 -187 -1 -281 -205 -167 -361 10 -13 -1
-38 -60 -140 -73 -126 -100 -159 -130 -159 -9 0 -63 28 -120 61 l-103 61 63
34 c81 44 123 85 159 158 26 51 30 70 30 141 0 90 -18 165 -58 238 l-25 47 30
43 c152 212 150 431 -4 630 -25 32 -44 59 -42 60 130 85 225 185 259 274 l18
48 166 3 c165 2 167 2 191 -22 24 -25 25 -28 25 -180 l0 -154 -28 -10 c-100
-35 -159 -158 -128 -265 38 -132 195 -197 317 -131 113 62 148 199 79 311 -21
35 -94 93 -117 93 -10 0 -13 33 -13 164 0 175 -6 204 -48 250 -47 50 -75 56
-266 56 l-174 0 -17 49 c-20 63 -60 124 -118 184 -41 42 -47 53 -47 90 0 61
-27 156 -56 198 -14 20 -44 47 -67 59 l-42 22 0 97 c0 77 -4 105 -21 142 l-21
45 131 75 c162 92 170 95 199 76 12 -8 55 -72 96 -143 59 -103 71 -131 62
-144 -115 -156 -19 -362 169 -362 187 0 287 212 168 357 -43 51 -101 78 -172
80 l-59 1 -74 129 c-86 150 -94 160 -147 187 -70 36 -113 24 -292 -80 l-158
-90 -30 23 c-45 33 -124 71 -189 90 l-57 16 0 54 c0 228 -133 382 -347 402
l-64 6 3 168 c3 146 5 171 21 186 15 15 40 18 176 21 l158 3 13 -32 c65 -155
282 -183 379 -48 96 132 26 319 -130 347 -99 18 -190 -24 -237 -108 l-27 -50
-160 0 c-134 0 -167 -3 -200 -19 -86 -39 -105 -87 -105 -260 l0 -130 -52 34
c-66 44 -138 60 -204 45 -62 -14 -146 -71 -186 -127 l-31 -43 -28 32 c-16 18
-28 36 -29 40 0 4 -25 25 -56 47 -102 73 -208 75 -312 6 l-52 -34 0 132 c0
107 -4 140 -19 172 -41 89 -84 105 -289 105 l-159 0 -25 47 c-43 85 -138 129
-238 111z m100 -125 c58 -34 68 -116 21 -164 -24 -24 -38 -29 -76 -29 -100 0
-142 105 -71 176 39 39 80 45 126 17z m2336 -17 c38 -38 44 -77 19 -126 -19
-37 -43 -50 -95 -50 -107 0 -140 146 -45 198 40 22 85 14 121 -22z m-1421
-482 c46 -31 67 -54 105 -119 l30 -50 0 -537 0 -538 -220 0 -221 0 -24 -25
c-20 -19 -25 -34 -25 -75 l0 -50 -65 0 -65 0 0 193 c0 137 -3 196 -12 205 -17
17 -58 15 -80 -5 -16 -15 -18 -36 -18 -241 0 -196 2 -228 17 -244 14 -15 32
-18 120 -18 l103 0 0 -54 0 -54 -106 -4 c-114 -3 -134 -13 -134 -64 0 -41 35
-54 142 -54 l98 0 0 -55 0 -55 -102 0 c-110 0 -138 -11 -138 -56 0 -45 23 -54
136 -54 l104 0 0 -60 0 -60 -102 0 c-147 0 -138 16 -138 -258 0 -196 2 -228
17 -244 20 -22 56 -23 77 -2 13 13 16 46 16 205 l0 189 65 0 65 0 0 -50 c0
-41 5 -56 25 -75 24 -25 24 -25 240 -25 l215 0 0 -563 0 -564 -38 -54 c-83
-119 -168 -108 -279 37 l-27 36 31 56 c48 87 67 164 60 244 -4 50 -2 78 10
105 45 108 -42 233 -162 233 -118 0 -193 -94 -171 -215 14 -71 107 -140 180
-133 l31 3 -3 -49 c-4 -79 -52 -165 -145 -261 -61 -62 -99 -92 -147 -114 -79
-38 -120 -39 -188 -5 -60 30 -99 73 -144 160 l-32 62 19 43 c60 136 146 231
252 280 71 32 90 64 58 99 -25 28 -66 25 -133 -9 -103 -52 -204 -161 -263
-283 -26 -55 -35 -57 -110 -28 -82 31 -126 67 -155 127 -23 46 -26 63 -22 117
3 37 16 87 32 122 l27 59 97 0 c85 0 103 4 148 27 67 35 118 89 155 164 25 50
28 65 20 87 -11 27 -48 44 -76 34 -8 -4 -27 -32 -44 -64 -51 -102 -102 -135
-206 -135 -57 0 -62 2 -92 37 -49 57 -100 164 -113 237 -19 109 16 215 109
319 l40 46 84 5 c60 4 98 13 138 31 30 14 70 28 90 32 77 12 149 95 149 170
-1 46 -34 109 -75 140 -79 61 -204 36 -252 -50 -27 -48 -30 -122 -7 -166 8
-17 13 -33 10 -37 -3 -3 -32 -6 -64 -6 -50 -1 -67 4 -116 34 -79 48 -171 133
-203 188 -55 93 -28 203 73 306 48 48 49 48 100 43 69 -7 90 -20 114 -67 26
-50 50 -64 85 -48 33 15 40 46 20 94 -31 74 -96 120 -186 131 l-49 6 0 38 c0
56 28 117 60 134 26 14 32 12 95 -20 105 -55 188 -47 249 26 28 33 28 63 -2
87 -24 19 -47 15 -81 -14 -25 -21 -38 -25 -64 -20 -55 11 -86 44 -97 107 -26
143 53 254 224 318 60 22 75 19 76 -17 0 -31 53 -113 100 -155 83 -75 177 -93
195 -38 12 37 -5 61 -58 85 -109 49 -138 108 -140 280 0 106 2 128 23 174 39
90 108 134 231 149 61 7 75 -3 118 -91 40 -82 40 -92 -6 -101 -120 -22 -181
-129 -138 -240 24 -64 71 -98 146 -103 77 -6 137 27 168 91 26 54 27 95 2 155
-11 26 -22 74 -25 107 -3 45 -16 83 -51 150 l-46 90 40 36 c83 74 159 89 226
43z m512 15 c32 -12 120 -77 127 -94 2 -6 -8 -32 -23 -56 -40 -64 -71 -153
-71 -203 0 -24 -9 -63 -20 -87 -26 -58 -25 -106 3 -160 63 -119 241 -119 304
0 29 56 30 114 0 165 -29 51 -64 76 -125 90 l-51 11 24 58 c12 31 35 73 50 93
27 35 28 35 79 29 163 -21 233 -83 255 -226 13 -79 0 -232 -22 -276 -22 -42
-66 -79 -119 -102 -33 -14 -49 -27 -54 -45 -7 -29 9 -62 35 -71 31 -9 124 32
169 75 42 40 92 125 92 155 0 28 30 28 100 1 127 -50 202 -141 204 -246 1 -98
-9 -126 -57 -149 -56 -27 -73 -26 -109 4 -36 30 -61 32 -88 5 -25 -25 -25 -37
-1 -76 43 -70 148 -84 251 -33 49 25 68 30 88 23 39 -14 65 -57 70 -117 l4
-54 -50 -6 c-91 -11 -156 -56 -187 -131 -20 -48 -13 -79 20 -94 35 -16 62 -1
81 44 19 44 51 64 116 71 l53 5 53 -56 c119 -126 126 -251 21 -371 -17 -19
-70 -61 -118 -93 -82 -55 -88 -57 -148 -56 -35 0 -65 3 -69 6 -3 4 2 20 10 37
41 78 6 186 -73 228 -171 90 -338 -111 -219 -263 23 -29 90 -63 125 -64 11 0
44 -12 71 -26 37 -19 71 -27 131 -31 l81 -6 49 -52 c152 -161 153 -357 4 -543
l-34 -42 -70 0 c-41 0 -81 6 -97 14 -42 22 -89 76 -111 128 -22 51 -53 68 -89
49 -35 -19 -36 -47 -4 -115 35 -74 92 -134 160 -167 39 -19 63 -23 144 -23
l96 -1 18 -35 c24 -50 44 -128 44 -176 0 -59 -43 -138 -94 -174 -38 -25 -164
-76 -171 -68 -1 2 -18 35 -39 73 -90 174 -265 315 -360 291 -44 -11 -47 -75
-5 -97 8 -4 37 -18 64 -30 72 -33 154 -121 206 -224 l43 -86 -31 -62 c-84
-168 -202 -225 -334 -160 -79 39 -217 180 -257 263 -18 36 -35 86 -38 112 l-7
48 39 0 c134 1 224 141 165 257 -33 66 -73 88 -156 88 -58 0 -76 -4 -104 -24
-61 -44 -90 -152 -56 -211 10 -18 12 -43 8 -91 -7 -83 9 -153 55 -242 l35 -67
-34 -44 c-65 -83 -128 -122 -179 -111 -32 7 -90 66 -119 120 -21 39 -21 50
-21 592 l0 553 220 0 221 0 24 25 c20 19 25 34 25 75 l0 50 65 0 65 0 0 -193
c0 -137 3 -196 12 -205 17 -17 58 -15 80 5 16 15 18 36 18 241 0 196 -2 228
-17 244 -14 15 -32 18 -120 18 l-103 0 0 60 0 60 102 0 c80 0 105 3 120 17 24
21 23 48 -2 73 -17 17 -33 20 -120 20 l-100 0 0 55 0 55 100 0 c87 0 103 3
120 20 24 24 25 49 6 76 -12 16 -29 19 -120 22 l-106 4 0 54 0 54 102 0 c147
0 138 -16 138 258 0 247 -3 262 -60 262 -48 0 -50 -10 -50 -217 l0 -193 -65 0
-65 0 0 50 c0 41 -5 56 -25 75 l-24 25 -221 0 -220 0 0 538 0 537 30 50 c72
123 151 167 237 134z m-767 -479 c23 -23 24 -30 8 -65 -22 -49 -99 -42 -112
10 -16 62 58 101 104 55z m985 -4 c32 -49 -10 -107 -68 -93 -21 6 -47 42 -47
67 0 21 41 50 70 50 20 0 34 -8 45 -24z m-2482 -426 c37 -30 52 -80 34 -122
-19 -45 -39 -60 -91 -65 -38 -5 -47 -1 -77 25 -29 26 -34 37 -34 77 0 40 5 51
33 76 40 36 96 39 135 9z m4019 -9 c28 -25 33 -36 33 -76 0 -40 -5 -51 -33
-76 -56 -50 -133 -36 -168 33 -53 102 81 197 168 119z m-1652 -886 l0 -425
-425 0 -425 0 0 425 0 425 425 0 425 0 0 -425z m-1452 -1 c26 -18 30 -75 7
-94 -37 -31 -105 0 -105 47 0 27 33 63 58 63 10 0 28 -7 40 -16z m2140 -11
c30 -40 -2 -95 -54 -95 -34 0 -56 23 -56 58 0 56 75 82 110 37z m-3215 -389
c35 -34 43 -83 23 -123 -17 -33 -62 -61 -96 -61 -62 0 -118 70 -105 130 17 78
123 110 178 54z m4348 -3 c41 -41 41 -98 0 -143 -25 -28 -36 -33 -76 -33 -40
0 -51 5 -76 33 -64 72 -20 172 76 172 38 0 52 -5 76 -29z m-2679 -738 c10 -9
18 -30 18 -49 0 -26 -6 -36 -27 -48 -64 -32 -123 44 -73 94 24 24 57 26 82 3z
m948 -5 c11 -12 20 -29 20 -39 0 -29 -34 -61 -65 -61 -29 0 -65 31 -65 57 0 7
9 24 21 39 25 32 61 34 89 4z m-2350 -23 c62 -32 76 -117 27 -163 -63 -59
-152 -42 -177 34 -32 97 60 176 150 129z m3787 -6 c30 -26 45 -77 33 -115 -30
-89 -151 -102 -195 -19 -25 44 -14 96 27 130 27 23 39 26 75 22 24 -2 50 -11
60 -18z m-2284 -1119 c76 -85 -21 -218 -121 -166 -41 21 -62 53 -62 94 0 44
14 69 53 93 44 27 93 19 130 -21z m798 17 c64 -43 63 -131 -1 -175 -69 -47
-160 1 -160 84 0 92 87 141 161 91z"/>
<path d="M2290 2910 c-19 -19 -20 -33 -20 -272 0 -139 4 -258 8 -264 20 -30
55 -34 292 -34 l241 0 24 25 25 24 0 244 c0 232 -1 246 -21 271 l-20 26 -255
0 c-241 0 -255 -1 -274 -20z m450 -275 l0 -175 -175 0 -175 0 0 175 0 175 175
0 175 0 0 -175z"/>
</g>
</svg>
