<?xml version="1.0" standalone="no"?>
<!DOCTYPE svg PUBLIC "-//W3C//DTD SVG 20010904//EN"
 "http://www.w3.org/TR/2001/REC-SVG-20010904/DTD/svg10.dtd">
<svg version="1.0" xmlns="http://www.w3.org/2000/svg"
 width="512.000000pt" height="512.000000pt" viewBox="0 0 512.000000 512.000000"
 preserveAspectRatio="xMidYMid meet">

<g transform="translate(0.000000,512.000000) scale(0.100000,-0.100000)"
fill="#000000" stroke="none">
<path d="M2503 4089 c-177 -30 -292 -135 -340 -310 -15 -54 -17 -101 -15 -313
2 -201 -1 -261 -14 -315 -23 -95 -75 -196 -148 -287 -101 -126 -173 -239 -241
-379 -90 -183 -106 -237 -113 -375 l-5 -115 -46 -55 c-60 -72 -64 -75 -143
-105 -112 -44 -145 -104 -132 -244 5 -58 2 -95 -10 -143 -32 -129 15 -219 125
-238 30 -5 96 -16 148 -25 90 -15 150 -33 306 -89 55 -20 89 -25 160 -26 108
0 155 18 206 78 34 39 37 41 154 62 123 23 165 23 418 2 l78 -7 27 -50 c53
-98 165 -149 268 -124 84 20 156 61 223 127 91 90 155 136 272 196 58 29 112
64 123 80 41 54 21 135 -59 233 -22 28 -38 63 -46 100 -17 78 -42 127 -82 159
l-34 26 13 57 c18 74 17 231 -1 308 -41 175 -162 383 -349 602 -30 35 -70 93
-89 130 -61 115 -69 155 -77 391 -11 301 -43 425 -139 532 -89 100 -262 146
-438 117z m258 -442 c72 -47 103 -184 61 -267 -15 -30 -22 -35 -50 -33 -42 1
-46 6 -33 31 6 12 11 44 11 72 0 41 -5 56 -25 75 -13 14 -30 25 -38 25 -25 0
-59 -47 -64 -90 -6 -40 -7 -41 -37 -34 -45 9 -46 11 -46 58 0 28 10 62 28 96
44 86 124 113 193 67z m-403 -23 c30 -21 52 -66 61 -125 8 -48 7 -51 -20 -64
-38 -20 -39 -20 -39 18 0 63 -55 103 -80 58 -14 -28 -12 -91 4 -123 15 -28 6
-48 -21 -48 -38 0 -67 151 -42 217 26 71 88 101 137 67z m256 -238 c23 -13 73
-36 111 -51 89 -35 115 -58 115 -103 0 -29 -8 -43 -44 -77 -24 -23 -56 -45
-72 -49 -15 -4 -58 -25 -95 -48 -114 -67 -181 -65 -280 11 -106 81 -139 118
-139 155 0 29 9 40 68 87 105 85 133 102 171 109 49 8 116 -5 165 -34z m252
-308 c47 -145 103 -278 194 -463 79 -161 124 -278 144 -371 6 -25 13 -33 38
-38 40 -8 45 0 53 89 12 132 -34 270 -129 387 -49 60 -60 84 -25 52 37 -33
108 -140 139 -208 45 -98 63 -187 57 -277 l-5 -76 42 -20 c74 -37 123 -80 136
-118 12 -37 8 -65 -10 -65 -5 0 -10 11 -10 24 0 54 -93 122 -208 151 -54 14
-65 14 -97 1 -25 -11 -40 -26 -50 -51 -9 -19 -39 -58 -69 -87 -63 -61 -72 -87
-87 -238 -13 -137 -34 -251 -50 -286 -8 -16 -38 -41 -74 -60 -177 -99 -367
-108 -545 -28 -48 22 -69 39 -106 88 l-45 61 33 7 c63 13 84 70 53 144 -21 50
-137 168 -220 221 -94 62 -141 108 -173 168 -22 43 -26 63 -27 140 0 104 20
174 91 320 58 119 97 168 48 60 -80 -176 -97 -233 -98 -330 -1 -81 2 -96 29
-150 l29 -60 12 85 c18 133 46 221 134 415 90 198 153 375 169 474 6 35 12 65
14 67 2 2 34 -21 71 -51 80 -63 121 -79 183 -72 54 6 254 105 298 148 16 16
30 29 31 29 2 0 15 -37 30 -82z m-1042 -1115 c30 -22 57 -60 117 -168 42 -76
105 -177 140 -224 129 -171 139 -186 155 -249 8 -35 13 -76 9 -93 -8 -36 -48
-85 -85 -104 -75 -39 -209 -27 -339 30 -92 41 -210 70 -334 84 -110 13 -143
33 -152 94 -4 28 -1 58 11 92 14 41 15 70 10 162 -9 149 4 174 111 207 56 18
97 52 167 139 21 27 48 53 60 58 33 14 87 2 130 -28z m1310 -14 c5 -30 18 -53
45 -81 33 -33 45 -38 84 -38 58 0 122 23 169 60 27 22 47 30 78 30 80 0 128
-49 145 -147 6 -39 26 -76 103 -189 38 -58 42 -102 10 -131 -13 -11 -60 -39
-106 -62 -111 -55 -161 -90 -261 -184 -141 -133 -265 -173 -368 -119 -102 53
-126 160 -75 333 36 122 48 187 57 289 13 158 32 227 76 271 26 26 35 19 43
-32z"/>
<path d="M2732 3235 c-37 -38 -131 -91 -196 -110 -97 -28 -164 -8 -248 73 -31
30 -48 41 -48 30 0 -19 70 -77 130 -108 54 -28 124 -29 195 -5 75 26 205 113
205 137 0 14 -15 8 -38 -17z"/>
</g>
</svg>
