<?xml version="1.0" standalone="no"?>
<!DOCTYPE svg PUBLIC "-//W3C//DTD SVG 20010904//EN"
 "http://www.w3.org/TR/2001/REC-SVG-20010904/DTD/svg10.dtd">
<svg version="1.0" xmlns="http://www.w3.org/2000/svg"
 width="512.000000pt" height="512.000000pt" viewBox="0 0 512.000000 512.000000"
 preserveAspectRatio="xMidYMid meet">

<g transform="translate(0.000000,512.000000) scale(0.100000,-0.100000)"
fill="#000000" stroke="none">
<path d="M2047 4804 l-287 -253 103 -54 c131 -70 922 -475 1092 -560 206 -102
277 -170 277 -262 0 -59 -35 -119 -104 -179 -135 -118 -311 -163 -473 -120
-36 9 -336 155 -743 360 -376 190 -689 344 -697 342 -24 -6 -587 -490 -578
-499 4 -4 274 -144 598 -309 325 -166 637 -326 694 -356 114 -59 274 -113 416
-140 124 -24 386 -24 514 0 248 46 482 155 697 326 303 241 487 449 531 599
30 103 -9 303 -81 415 -55 86 -173 172 -436 318 -109 61 -1163 595 -1220 619
-11 5 -104 -71 -303 -247z"/>
<path d="M540 2272 l0 -1207 255 -128 255 -127 2 717 3 717 133 -755 c74 -415
136 -764 139 -777 4 -19 49 -45 229 -135 123 -61 225 -109 227 -107 3 3 68
289 146 635 77 347 142 635 143 640 2 6 5 -309 8 -699 l5 -709 253 -123 252
-123 -2 1210 -3 1209 -383 182 c-210 100 -384 179 -387 176 -3 -2 -59 -258
-126 -569 -66 -310 -122 -565 -124 -567 -1 -2 -10 41 -20 95 -10 54 -66 366
-125 693 l-106 594 -380 183 c-208 100 -382 182 -386 183 -5 0 -8 -543 -8
-1208z"/>
<path d="M3075 2719 l-400 -207 -3 -1217 c-1 -669 2 -1215 6 -1213 5 1 442
230 970 508 l962 505 0 333 0 333 -92 -49 c-169 -90 -1026 -532 -1032 -532 -3
0 -7 393 -8 873 l-3 874 -400 -208z"/>
<path d="M4387 2235 c-93 -33 -132 -123 -88 -205 57 -108 219 -108 273 0 61
120 -58 251 -185 205z m97 -30 c41 -20 66 -63 66 -115 0 -34 -6 -48 -34 -76
-28 -28 -41 -34 -78 -34 -50 0 -82 19 -104 62 -38 74 18 175 99 177 11 1 33
-6 51 -14z"/>
<path d="M4380 2095 c0 -60 3 -75 15 -75 10 0 15 10 15 30 0 24 4 30 21 30 13
0 23 -10 30 -30 13 -37 50 -44 42 -7 -3 12 -12 29 -20 38 -12 14 -12 17 2 22
18 7 20 38 3 55 -7 7 -34 12 -60 12 l-48 0 0 -75z m75 30 c0 -13 -8 -21 -22
-23 -19 -3 -23 1 -23 23 0 22 4 26 23 23 14 -2 22 -10 22 -23z"/>
</g>
</svg>
